<svg xmlns="http://www.w3.org/2000/svg" xmlns:xlink="http://www.w3.org/1999/xlink" width="21" height="15" version="1.1" viewBox="0 0 21 15"><title>MP</title><desc>Created with sketchtool.</desc><defs><linearGradient id="linearGradient-1" x1="50%" x2="50%" y1="0%" y2="100%"><stop offset="0%" stop-color="#FFF"/><stop offset="100%" stop-color="#F0F0F0"/></linearGradient><linearGradient id="linearGradient-2" x1="50%" x2="50%" y1="0%" y2="100%"><stop offset="0%" stop-color="#1E8BD6"/><stop offset="100%" stop-color="#1074BA"/></linearGradient><linearGradient id="linearGradient-3" x1="50%" x2="50%" y1="0%" y2="100%"><stop offset="0%" stop-color="#A9A7A9"/><stop offset="100%" stop-color="#8C8A8C"/></linearGradient></defs><g id="Symbols" fill="none" fill-rule="evenodd" stroke="none" stroke-width="1"><g id="MP"><rect id="FlagBackground" width="21" height="15" x="0" y="0" fill="url(#linearGradient-1)"/><rect id="Rectangle-2" width="21" height="15" x="0" y="0" fill="url(#linearGradient-2)"/><path id="Oval-228" fill="url(#linearGradient-1)" fill-rule="nonzero" d="M10.5,12.5 C13.2614237,12.5 15.5,10.2614237 15.5,7.5 C15.5,4.73857625 13.2614237,2.5 10.5,2.5 C7.73857625,2.5 5.5,4.73857625 5.5,7.5 C5.5,10.2614237 7.73857625,12.5 10.5,12.5 L10.5,12.5 Z M10.5,11.5 C8.290861,11.5 6.5,9.709139 6.5,7.5 C6.5,5.290861 8.290861,3.5 10.5,3.5 C12.709139,3.5 14.5,5.290861 14.5,7.5 C14.5,9.709139 12.709139,11.5 10.5,11.5 L10.5,11.5 Z"/><path id="Combined-Shape" fill="url(#linearGradient-3)" d="M8.93768562,5.99703014 C8.9721009,5.4463856 9.44266033,5 9.99895656,5 L11.0010434,5 C11.5527519,5 12.0283148,5.45303631 12.0623144,5.99703014 L12.4376856,12.0029699 C12.4721009,12.5536144 12.0566468,13 11.4906311,13 L9.5093689,13 C8.95190985,13 8.52831477,12.5469637 8.56231438,12.0029699 L8.93768562,5.99703014 Z"/><polygon id="Star-8" fill="url(#linearGradient-1)" points="10.5 9.515 8.443 10.982 9.202 8.572 7.171 7.068 9.698 7.046 10.5 4.65 11.302 7.046 13.829 7.068 11.798 8.572 12.557 10.982"/></g></g></svg>