<svg xmlns="http://www.w3.org/2000/svg" xmlns:xlink="http://www.w3.org/1999/xlink" style="margin:auto;background:0 0;display:block;shape-rendering:auto" width="32" height="32" preserveAspectRatio="xMidYMid" viewBox="0 0 100 100"><g transform="rotate(0 50 50)"><rect width="4" height="26" x="48" y="6" fill="#1b2a4e" rx="2" ry="2.34"><animate attributeName="opacity" begin="-1.171875s" dur="1.25s" keyTimes="0;1" repeatCount="indefinite" values="1;0"/></rect></g><g transform="rotate(22.5 50 50)"><rect width="4" height="26" x="48" y="6" fill="#1b2a4e" rx="2" ry="2.34"><animate attributeName="opacity" begin="-1.09375s" dur="1.25s" keyTimes="0;1" repeatCount="indefinite" values="1;0"/></rect></g><g transform="rotate(45 50 50)"><rect width="4" height="26" x="48" y="6" fill="#1b2a4e" rx="2" ry="2.34"><animate attributeName="opacity" begin="-1.015625s" dur="1.25s" keyTimes="0;1" repeatCount="indefinite" values="1;0"/></rect></g><g transform="rotate(67.5 50 50)"><rect width="4" height="26" x="48" y="6" fill="#1b2a4e" rx="2" ry="2.34"><animate attributeName="opacity" begin="-0.9375s" dur="1.25s" keyTimes="0;1" repeatCount="indefinite" values="1;0"/></rect></g><g transform="rotate(90 50 50)"><rect width="4" height="26" x="48" y="6" fill="#1b2a4e" rx="2" ry="2.34"><animate attributeName="opacity" begin="-0.859375s" dur="1.25s" keyTimes="0;1" repeatCount="indefinite" values="1;0"/></rect></g><g transform="rotate(112.5 50 50)"><rect width="4" height="26" x="48" y="6" fill="#1b2a4e" rx="2" ry="2.34"><animate attributeName="opacity" begin="-0.78125s" dur="1.25s" keyTimes="0;1" repeatCount="indefinite" values="1;0"/></rect></g><g transform="rotate(135 50 50)"><rect width="4" height="26" x="48" y="6" fill="#1b2a4e" rx="2" ry="2.34"><animate attributeName="opacity" begin="-0.703125s" dur="1.25s" keyTimes="0;1" repeatCount="indefinite" values="1;0"/></rect></g><g transform="rotate(157.5 50 50)"><rect width="4" height="26" x="48" y="6" fill="#1b2a4e" rx="2" ry="2.34"><animate attributeName="opacity" begin="-0.625s" dur="1.25s" keyTimes="0;1" repeatCount="indefinite" values="1;0"/></rect></g><g transform="rotate(180 50 50)"><rect width="4" height="26" x="48" y="6" fill="#1b2a4e" rx="2" ry="2.34"><animate attributeName="opacity" begin="-0.546875s" dur="1.25s" keyTimes="0;1" repeatCount="indefinite" values="1;0"/></rect></g><g transform="rotate(202.5 50 50)"><rect width="4" height="26" x="48" y="6" fill="#1b2a4e" rx="2" ry="2.34"><animate attributeName="opacity" begin="-0.46875s" dur="1.25s" keyTimes="0;1" repeatCount="indefinite" values="1;0"/></rect></g><g transform="rotate(225 50 50)"><rect width="4" height="26" x="48" y="6" fill="#1b2a4e" rx="2" ry="2.34"><animate attributeName="opacity" begin="-0.390625s" dur="1.25s" keyTimes="0;1" repeatCount="indefinite" values="1;0"/></rect></g><g transform="rotate(247.5 50 50)"><rect width="4" height="26" x="48" y="6" fill="#1b2a4e" rx="2" ry="2.34"><animate attributeName="opacity" begin="-0.3125s" dur="1.25s" keyTimes="0;1" repeatCount="indefinite" values="1;0"/></rect></g><g transform="rotate(270 50 50)"><rect width="4" height="26" x="48" y="6" fill="#1b2a4e" rx="2" ry="2.34"><animate attributeName="opacity" begin="-0.234375s" dur="1.25s" keyTimes="0;1" repeatCount="indefinite" values="1;0"/></rect></g><g transform="rotate(292.5 50 50)"><rect width="4" height="26" x="48" y="6" fill="#1b2a4e" rx="2" ry="2.34"><animate attributeName="opacity" begin="-0.15625s" dur="1.25s" keyTimes="0;1" repeatCount="indefinite" values="1;0"/></rect></g><g transform="rotate(315 50 50)"><rect width="4" height="26" x="48" y="6" fill="#1b2a4e" rx="2" ry="2.34"><animate attributeName="opacity" begin="-0.078125s" dur="1.25s" keyTimes="0;1" repeatCount="indefinite" values="1;0"/></rect></g><g transform="rotate(337.5 50 50)"><rect width="4" height="26" x="48" y="6" fill="#1b2a4e" rx="2" ry="2.34"><animate attributeName="opacity" begin="0s" dur="1.25s" keyTimes="0;1" repeatCount="indefinite" values="1;0"/></rect></g></svg>